<?xml version="1.0" encoding="UTF-8" standalone="no"?>
<svg
   width="1261"
   height="363.33"
   version="1.1"
   id="svg1697"
   sodipodi:docname="Munki + Autopkg process.svg"
   inkscape:version="1.1-dev (9017afb, 2021-01-01)"
   xmlns:inkscape="http://www.inkscape.org/namespaces/inkscape"
   xmlns:sodipodi="http://sodipodi.sourceforge.net/DTD/sodipodi-0.dtd"
   xmlns:xlink="http://www.w3.org/1999/xlink"
   xmlns="http://www.w3.org/2000/svg"
   xmlns:svg="http://www.w3.org/2000/svg"
   xmlns:lucid="lucid">
  <defs
     id="defs1701">
    <defs
       id="defs1693">
      <path
         fill="#333333"
         d="M 205,0 177,-72 H 64 L 36,0 H 1 l 101,-248 h 38 L 239,0 Z m -38,-99 -47,-123 c -12,45 -31,82 -46,123 h 93"
         id="m" />
      <path
         fill="#333333"
         d="M 84,4 C -5,8 30,-112 23,-190 h 32 v 120 c 0,31 7,50 39,49 72,-2 45,-101 50,-169 h 31 l 1,190 h -30 c -1,-10 1,-25 -2,-33 -11,22 -28,36 -60,37"
         id="n" />
      <path
         fill="#333333"
         d="m 59,-47 c -2,24 18,29 38,22 V -1 C 64,9 27,4 27,-40 V -167 H 5 v -23 h 24 l 9,-43 h 21 v 43 h 35 v 23 H 59 v 120"
         id="o" />
      <path
         fill="#333333"
         d="m 100,-194 c 62,-1 85,37 85,99 1,63 -27,99 -86,99 -59,0 -83,-39 -84,-99 0,-66 28,-99 85,-99 z m -1,174 c 44,1 53,-31 53,-75 0,-43 -8,-75 -51,-75 -43,0 -53,32 -53,75 0,43 10,74 51,75"
         id="p" />
      <path
         fill="#333333"
         d="m 30,-248 c 87,1 191,-15 191,75 0,78 -77,80 -158,76 V 0 H 30 Z m 33,125 c 57,0 124,11 124,-50 0,-59 -68,-47 -124,-48 v 98"
         id="q" />
      <path
         fill="#333333"
         d="M 143,0 79,-87 56,-68 V 0 H 24 v -261 h 32 v 163 l 83,-92 h 37 l -77,82 82,108 h -38"
         id="r" />
      <path
         fill="#333333"
         d="M 177,-190 C 167,-65 218,103 67,71 44,65 29,51 23,28 L 55,23 C 70,70 155,55 144,-5 V -35 C 133,-14 115,1 83,1 29,1 15,-40 15,-95 c 0,-56 16,-97 71,-98 29,-1 48,16 59,35 1,-10 0,-23 2,-32 z M 94,-22 c 36,0 50,-32 50,-73 0,-42 -14,-75 -50,-75 -39,0 -46,34 -46,75 0,41 6,73 46,73"
         id="s" />
      <g
         id="a">
        <use
           transform="scale(0.0617284)"
           xlink:href="#m"
           id="use1527"
           x="0"
           y="0"
           width="100%"
           height="100%" />
        <use
           transform="matrix(0.0617284,0,0,0.0617284,14.814815,0)"
           xlink:href="#n"
           id="use1529"
           x="0"
           y="0"
           width="100%"
           height="100%" />
        <use
           transform="matrix(0.0617284,0,0,0.0617284,27.160494,0)"
           xlink:href="#o"
           id="use1531"
           x="0"
           y="0"
           width="100%"
           height="100%" />
        <use
           transform="matrix(0.0617284,0,0,0.0617284,33.333333,0)"
           xlink:href="#p"
           id="use1533"
           x="0"
           y="0"
           width="100%"
           height="100%" />
        <use
           transform="matrix(0.0617284,0,0,0.0617284,45.679012,0)"
           xlink:href="#q"
           id="use1535"
           x="0"
           y="0"
           width="100%"
           height="100%" />
        <use
           transform="matrix(0.0617284,0,0,0.0617284,60.493827,0)"
           xlink:href="#r"
           id="use1537"
           x="0"
           y="0"
           width="100%"
           height="100%" />
        <use
           transform="matrix(0.0617284,0,0,0.0617284,71.604938,0)"
           xlink:href="#s"
           id="use1539"
           x="0"
           y="0"
           width="100%"
           height="100%" />
      </g>
      <path
         fill="#333333"
         d="M 114,-163 C 36,-179 61,-72 57,0 H 25 l -1,-190 h 30 c 1,12 -1,29 2,39 6,-27 23,-49 58,-41 v 29"
         id="t" />
      <path
         fill="#333333"
         d="m 100,-194 c 63,0 86,42 84,106 H 49 c 0,40 14,67 53,68 26,1 43,-12 49,-29 l 28,8 C 168,-13 142,4 102,4 44,4 14,-33 15,-96 c 1,-61 26,-98 85,-98 z m 52,81 c 6,-60 -76,-77 -97,-28 -3,7 -6,17 -6,28 h 103"
         id="u" />
      <path
         fill="#333333"
         d="m 96,-169 c -40,0 -48,33 -48,73 0,40 9,75 48,75 24,0 41,-14 43,-38 l 32,2 C 165,-20 140,4 97,4 38,4 21,-37 15,-95 c -10,-93 101,-131 147,-64 4,7 5,14 7,22 l -32,3 c -4,-21 -16,-35 -41,-35"
         id="v" />
      <path
         fill="#333333"
         d="m 24,-231 v -30 h 32 v 30 z M 24,0 V -190 H 56 V 0 H 24"
         id="w" />
      <path
         fill="#333333"
         d="m 115,-194 c 55,1 70,41 70,98 C 185,-39 169,2 115,4 84,4 66,-9 55,-30 L 56,75 H 24 l -1,-265 h 31 l 2,30 c 10,-21 28,-34 59,-34 z m -8,174 c 40,0 45,-34 45,-75 0,-41 -6,-73 -45,-74 -42,0 -51,32 -51,76 0,43 10,73 51,73"
         id="x" />
      <g
         id="b">
        <use
           transform="scale(0.0617284)"
           xlink:href="#t"
           id="use1547"
           x="0"
           y="0"
           width="100%"
           height="100%" />
        <use
           transform="matrix(0.0617284,0,0,0.0617284,7.345679,0)"
           xlink:href="#u"
           id="use1549"
           x="0"
           y="0"
           width="100%"
           height="100%" />
        <use
           transform="matrix(0.0617284,0,0,0.0617284,19.691358,0)"
           xlink:href="#v"
           id="use1551"
           x="0"
           y="0"
           width="100%"
           height="100%" />
        <use
           transform="matrix(0.0617284,0,0,0.0617284,30.802469,0)"
           xlink:href="#w"
           id="use1553"
           x="0"
           y="0"
           width="100%"
           height="100%" />
        <use
           transform="matrix(0.0617284,0,0,0.0617284,35.679012,0)"
           xlink:href="#x"
           id="use1555"
           x="0"
           y="0"
           width="100%"
           height="100%" />
        <use
           transform="matrix(0.0617284,0,0,0.0617284,48.024691,0)"
           xlink:href="#u"
           id="use1557"
           x="0"
           y="0"
           width="100%"
           height="100%" />
      </g>
      <g
         id="c">
        <use
           transform="scale(0.0617284)"
           xlink:href="#t"
           id="use1560"
           x="0"
           y="0"
           width="100%"
           height="100%" />
        <use
           transform="matrix(0.0617284,0,0,0.0617284,7.345679,0)"
           xlink:href="#u"
           id="use1562"
           x="0"
           y="0"
           width="100%"
           height="100%" />
        <use
           transform="matrix(0.0617284,0,0,0.0617284,19.691358,0)"
           xlink:href="#x"
           id="use1564"
           x="0"
           y="0"
           width="100%"
           height="100%" />
        <use
           transform="matrix(0.0617284,0,0,0.0617284,32.037037,0)"
           xlink:href="#p"
           id="use1566"
           x="0"
           y="0"
           width="100%"
           height="100%" />
      </g>
      <path
         fill="#333333"
         d="M 143,4 C 61,4 22,-44 18,-125 c -5,-107 100,-154 193,-111 17,8 29,25 37,43 l -32,9 c -13,-25 -37,-40 -76,-40 -61,0 -88,39 -88,99 0,61 29,100 91,101 35,0 62,-11 79,-27 v -45 h -74 v -28 h 105 v 86 C 228,-13 192,4 143,4"
         id="y" />
      <path
         fill="#333333"
         d="M 106,-169 C 34,-169 62,-67 57,0 H 25 v -261 h 32 l -1,103 c 12,-21 28,-36 61,-36 89,0 53,116 60,194 h -32 v -121 c 2,-32 -8,-49 -39,-48"
         id="z" />
      <path
         fill="#333333"
         d="m 115,-194 c 53,0 69,39 70,98 C 185,-30 162,4 115,4 84,3 66,-7 56,-30 L 54,0 H 23 l 1,-261 h 32 v 101 c 10,-23 28,-34 59,-34 z m -8,174 c 40,0 45,-34 45,-75 0,-40 -5,-75 -45,-74 -42,0 -51,32 -51,76 0,43 10,73 51,73"
         id="A" />
      <g
         id="d">
        <use
           transform="scale(0.0617284)"
           xlink:href="#y"
           id="use1572"
           x="0"
           y="0"
           width="100%"
           height="100%" />
        <use
           transform="matrix(0.0617284,0,0,0.0617284,17.283951,0)"
           xlink:href="#w"
           id="use1574"
           x="0"
           y="0"
           width="100%"
           height="100%" />
        <use
           transform="matrix(0.0617284,0,0,0.0617284,22.160494,0)"
           xlink:href="#o"
           id="use1576"
           x="0"
           y="0"
           width="100%"
           height="100%" />
        <use
           transform="matrix(0.0617284,0,0,0.0617284,28.333333,0)"
           xlink:href="#z"
           id="use1578"
           x="0"
           y="0"
           width="100%"
           height="100%" />
        <use
           transform="matrix(0.0617284,0,0,0.0617284,40.679012,0)"
           xlink:href="#n"
           id="use1580"
           x="0"
           y="0"
           width="100%"
           height="100%" />
        <use
           transform="matrix(0.0617284,0,0,0.0617284,53.024691,0)"
           xlink:href="#A"
           id="use1582"
           x="0"
           y="0"
           width="100%"
           height="100%" />
      </g>
      <path
         fill="#333333"
         d="m 117,-194 c 89,-4 53,116 60,194 h -32 v -121 c 0,-31 -8,-49 -39,-48 C 34,-167 62,-67 57,0 H 25 l -1,-190 h 30 c 1,10 -1,24 2,32 11,-22 29,-35 61,-36"
         id="B" />
      <g
         id="e">
        <use
           transform="scale(0.0617284)"
           xlink:href="#m"
           id="use1586"
           x="0"
           y="0"
           width="100%"
           height="100%" />
        <use
           transform="matrix(0.0617284,0,0,0.0617284,14.814815,0)"
           xlink:href="#v"
           id="use1588"
           x="0"
           y="0"
           width="100%"
           height="100%" />
        <use
           transform="matrix(0.0617284,0,0,0.0617284,25.925926,0)"
           xlink:href="#o"
           id="use1590"
           x="0"
           y="0"
           width="100%"
           height="100%" />
        <use
           transform="matrix(0.0617284,0,0,0.0617284,32.098765,0)"
           xlink:href="#w"
           id="use1592"
           x="0"
           y="0"
           width="100%"
           height="100%" />
        <use
           transform="matrix(0.0617284,0,0,0.0617284,36.975309,0)"
           xlink:href="#p"
           id="use1594"
           x="0"
           y="0"
           width="100%"
           height="100%" />
        <use
           transform="matrix(0.0617284,0,0,0.0617284,49.320988,0)"
           xlink:href="#B"
           id="use1596"
           x="0"
           y="0"
           width="100%"
           height="100%" />
      </g>
      <path
         fill="#333333"
         d="m 135,-143 c -3,-34 -86,-38 -87,0 15,53 115,12 119,90 4,78 -150,74 -157,8 l 28,-5 c 4,36 97,45 98,0 -10,-56 -113,-15 -118,-90 -4,-57 82,-63 122,-42 12,7 21,19 24,35"
         id="C" />
      <g
         id="f">
        <use
           transform="scale(0.0617284)"
           xlink:href="#t"
           id="use1600"
           x="0"
           y="0"
           width="100%"
           height="100%" />
        <use
           transform="matrix(0.0617284,0,0,0.0617284,7.345679,0)"
           xlink:href="#n"
           id="use1602"
           x="0"
           y="0"
           width="100%"
           height="100%" />
        <use
           transform="matrix(0.0617284,0,0,0.0617284,19.691358,0)"
           xlink:href="#B"
           id="use1604"
           x="0"
           y="0"
           width="100%"
           height="100%" />
        <use
           transform="matrix(0.0617284,0,0,0.0617284,32.037037,0)"
           xlink:href="#B"
           id="use1606"
           x="0"
           y="0"
           width="100%"
           height="100%" />
        <use
           transform="matrix(0.0617284,0,0,0.0617284,44.382716,0)"
           xlink:href="#u"
           id="use1608"
           x="0"
           y="0"
           width="100%"
           height="100%" />
        <use
           transform="matrix(0.0617284,0,0,0.0617284,56.728395,0)"
           xlink:href="#t"
           id="use1610"
           x="0"
           y="0"
           width="100%"
           height="100%" />
        <use
           transform="matrix(0.0617284,0,0,0.0617284,64.074074,0)"
           xlink:href="#C"
           id="use1612"
           x="0"
           y="0"
           width="100%"
           height="100%" />
      </g>
      <path
         fill="#333333"
         d="m 240,0 2,-218 C 219,-142 188,-73 162,0 H 139 L 58,-218 59,0 H 30 v -248 h 44 l 77,211 c 21,-75 51,-140 76,-211 h 43 V 0 h -30"
         id="D" />
      <g
         id="g">
        <use
           transform="scale(0.0617284)"
           xlink:href="#D"
           id="use1616"
           x="0"
           y="0"
           width="100%"
           height="100%" />
        <use
           transform="matrix(0.0617284,0,0,0.0617284,18.45679,0)"
           xlink:href="#n"
           id="use1618"
           x="0"
           y="0"
           width="100%"
           height="100%" />
        <use
           transform="matrix(0.0617284,0,0,0.0617284,30.802469,0)"
           xlink:href="#B"
           id="use1620"
           x="0"
           y="0"
           width="100%"
           height="100%" />
        <use
           transform="matrix(0.0617284,0,0,0.0617284,43.148148,0)"
           xlink:href="#r"
           id="use1622"
           x="0"
           y="0"
           width="100%"
           height="100%" />
        <use
           transform="matrix(0.0617284,0,0,0.0617284,54.259259,0)"
           xlink:href="#w"
           id="use1624"
           x="0"
           y="0"
           width="100%"
           height="100%" />
      </g>
      <path
         d="m 730,-137 c 145,0 253,-29 323,-105 V -569 H 716 v -156 h 528 v 534 C 1148,-51 964,20 729,20 335,20 131,-259 122,-658 v -127 c -5,-410 194,-690 585,-691 310,-1 499,171 537,447 h -192 c -36,-193 -151,-289 -344,-289 -285,0 -393,220 -393,528 v 119 c -5,296 140,534 415,534"
         id="E" />
      <path
         d="M 491,20 C 250,19 136,-128 136,-378 v -704 h 185 v 699 c 0,164 67,246 200,246 141,0 235,-53 282,-158 v -787 H 988 V 0 H 812 l -4,-107 C 736,-22 630,20 491,20"
         id="F" />
      <path
         d="m 538,-131 c 121,0 232,-49 232,-156 0,-50 -20,-88 -56,-117 -73,-60 -334,-92 -420,-143 -92,-55 -162,-110 -162,-238 0,-190 192,-317 400,-317 223,0 414,129 413,338 H 759 c 0,-108 -110,-186 -227,-186 -119,0 -215,53 -215,159 0,45 18,78 53,101 76,52 331,90 416,139 98,57 169,115 169,251 C 955,-92 760,20 538,20 362,20 224,-48 152,-154 114,-209 95,-269 95,-333 h 185 c 6,129 116,202 258,202"
         id="G" />
      <path
         d="M 456,20 C 285,20 205,-92 206,-268 V -939 H 9 v -143 h 197 v -262 h 185 v 262 h 202 v 143 H 391 v 671 c -9,125 92,149 207,118 V 0 C 549,13 502,20 456,20"
         id="H" />
      <path
         d="M 584,20 C 278,26 81,-227 91,-551 c 10,-320 175,-545 491,-551 308,-5 503,247 494,573 -9,322 -175,543 -492,549 z m -2,-970 c -208,0 -305,185 -305,421 0,216 106,398 307,398 211,0 307,-186 307,-420 0,-214 -109,-399 -309,-399"
         id="I" />
      <g
         id="i">
        <use
           transform="scale(0.00651074)"
           xlink:href="#E"
           id="use1632"
           x="0"
           y="0"
           width="100%"
           height="100%" />
        <use
           transform="matrix(0.00651074,0,0,0.00651074,9.0824854,0)"
           xlink:href="#F"
           id="use1634"
           x="0"
           y="0"
           width="100%"
           height="100%" />
        <use
           transform="matrix(0.00651074,0,0,0.00651074,16.433113,0)"
           xlink:href="#G"
           id="use1636"
           x="0"
           y="0"
           width="100%"
           height="100%" />
        <use
           transform="matrix(0.00651074,0,0,0.00651074,23.308457,0)"
           xlink:href="#H"
           id="use1638"
           x="0"
           y="0"
           width="100%"
           height="100%" />
        <use
           transform="matrix(0.00651074,0,0,0.00651074,27.533929,0)"
           xlink:href="#I"
           id="use1640"
           x="0"
           y="0"
           width="100%"
           height="100%" />
      </g>
      <path
         d="M 341,0 H 156 V -1536 H 341 V 0"
         id="J" />
      <path
         d="m 561,-1102 c 238,-4 403,126 403,351 v 498 c 0,99 13,178 38,237 V 0 H 808 C 797,-21 789,-59 782,-114 696,-25 593,20 474,20 275,20 106,-110 109,-300 c 4,-251 214,-359 490,-356 h 180 v -85 c -1,-135 -86,-212 -229,-212 -115,0 -232,67 -233,171 H 131 c 20,-205 206,-316 430,-320 z m -267,776 c 0,117 90,185 207,185 122,0 239,-75 278,-162 V -525 H 634 c -227,0 -340,66 -340,199"
         id="K" />
      <path
         d="m 632,-1102 c 291,0 422,251 422,573 C 1054,-232 913,19 635,20 504,20 400,-22 325,-105 V 416 H 140 v -1498 h 169 l 9,120 c 75,-93 180,-140 314,-140 z m -53,971 c 207,0 290,-180 290,-419 0,-218 -92,-395 -292,-395 -112,0 -196,50 -252,149 v 517 c 55,99 140,148 254,148"
         id="L" />
      <g
         id="j">
        <use
           transform="scale(0.00651074)"
           xlink:href="#J"
           id="use1646"
           x="0"
           y="0"
           width="100%"
           height="100%" />
        <use
           transform="matrix(0.00651074,0,0,0.00651074,3.2358389,0)"
           xlink:href="#K"
           id="use1648"
           x="0"
           y="0"
           width="100%"
           height="100%" />
        <use
           transform="matrix(0.00651074,0,0,0.00651074,10.488806,0)"
           xlink:href="#L"
           id="use1650"
           x="0"
           y="0"
           width="100%"
           height="100%" />
        <use
           transform="matrix(0.00651074,0,0,0.00651074,17.969648,0)"
           xlink:href="#H"
           id="use1652"
           x="0"
           y="0"
           width="100%"
           height="100%" />
        <use
           transform="matrix(0.00651074,0,0,0.00651074,22.19512,0)"
           xlink:href="#I"
           id="use1654"
           x="0"
           y="0"
           width="100%"
           height="100%" />
        <use
           transform="matrix(0.00651074,0,0,0.00651074,29.799667,0)"
           xlink:href="#L"
           id="use1656"
           x="0"
           y="0"
           width="100%"
           height="100%" />
      </g>
      <filter
         id="h"
         filterUnits="objectBoundingBox"
         x="-0.025"
         y="-0.016666667"
         width="1.05"
         height="1.075">
        <feOffset
           result="offOut"
           in="SourceAlpha"
           dy="1"
           id="feOffset1659" />
        <feGaussianBlur
           result="blurOut"
           in="offOut"
           stdDeviation=".75"
           id="feGaussianBlur1661" />
        <feColorMatrix
           result="colorOut"
           in="blurOut"
           values="0 0 0 0 0 0 0 0 0 0 0 0 0 0 0 0 0 0 0.4 0"
           id="feColorMatrix1663" />
        <feBlend
           in="SourceGraphic"
           in2="colorOut"
           id="feBlend1665"
           mode="normal" />
      </filter>
      <g
         id="k">
        <use
           transform="scale(0.0617284)"
           xlink:href="#D"
           id="use1668"
           x="0"
           y="0"
           width="100%"
           height="100%" />
        <use
           transform="matrix(0.0617284,0,0,0.0617284,18.45679,0)"
           xlink:href="#n"
           id="use1670"
           x="0"
           y="0"
           width="100%"
           height="100%" />
        <use
           transform="matrix(0.0617284,0,0,0.0617284,30.802469,0)"
           xlink:href="#B"
           id="use1672"
           x="0"
           y="0"
           width="100%"
           height="100%" />
        <use
           transform="matrix(0.0617284,0,0,0.0617284,43.148148,0)"
           xlink:href="#r"
           id="use1674"
           x="0"
           y="0"
           width="100%"
           height="100%" />
        <use
           transform="matrix(0.0617284,0,0,0.0617284,54.259259,0)"
           xlink:href="#w"
           id="use1676"
           x="0"
           y="0"
           width="100%"
           height="100%" />
      </g>
      <path
         fill="#333333"
         d="M 108,0 H 70 L 1,-190 h 34 l 54,165 56,-165 h 34"
         id="M" />
      <g
         id="l">
        <use
           transform="scale(0.0617284)"
           xlink:href="#C"
           id="use1680"
           x="0"
           y="0"
           width="100%"
           height="100%" />
        <use
           transform="matrix(0.0617284,0,0,0.0617284,11.111111,0)"
           xlink:href="#u"
           id="use1682"
           x="0"
           y="0"
           width="100%"
           height="100%" />
        <use
           transform="matrix(0.0617284,0,0,0.0617284,23.45679,0)"
           xlink:href="#t"
           id="use1684"
           x="0"
           y="0"
           width="100%"
           height="100%" />
        <use
           transform="matrix(0.0617284,0,0,0.0617284,30.802469,0)"
           xlink:href="#M"
           id="use1686"
           x="0"
           y="0"
           width="100%"
           height="100%" />
        <use
           transform="matrix(0.0617284,0,0,0.0617284,41.91358,0)"
           xlink:href="#u"
           id="use1688"
           x="0"
           y="0"
           width="100%"
           height="100%" />
        <use
           transform="matrix(0.0617284,0,0,0.0617284,54.259259,0)"
           xlink:href="#t"
           id="use1690"
           x="0"
           y="0"
           width="100%"
           height="100%" />
      </g>
    </defs>
  </defs>
  <sodipodi:namedview
     id="namedview1699"
     pagecolor="#ffffff"
     bordercolor="#666666"
     borderopacity="1.0"
     objecttolerance="10.0"
     gridtolerance="10.0"
     guidetolerance="10.0"
     inkscape:pageshadow="2"
     inkscape:pageopacity="0.0"
     inkscape:pagecheckerboard="0"
     showgrid="false"
     inkscape:zoom="1"
     inkscape:cx="630.5"
     inkscape:cy="182"
     inkscape:window-width="1920"
     inkscape:window-height="952"
     inkscape:window-x="0"
     inkscape:window-y="25"
     inkscape:window-maximized="1"
     inkscape:current-layer="svg1697" />
  <path
     d="m 560.00032,166.00303 c 0,-3.30015 2.69994,-6.00028 5.99987,-6.00028 h 147.99687 c 3.29993,0 5.99987,2.70013 5.99987,6.00028 v 108.00509 c 0,3.30015 -2.69994,6.00028 -5.99987,6.00028 H 566.00019 c -3.29993,0 -5.99987,-2.70013 -5.99987,-6.00028 z"
     stroke="#5e5e5e"
     stroke-width="3.00004"
     fill="#ffffff"
     id="path1460" />
  <path
     d="m 697.8374,212.96524 -52.43889,-52.80248 c -2.99994,-2.88014 -7.67984,-2.88014 -10.43978,0 l -11.51975,11.28053 13.67971,13.68064 c 0.83998,-0.36001 2.03995,-0.60003 3.23993,-0.60003 5.03989,0 9.1198,4.0802 9.1198,9.12043 0,1.20006 -0.23999,2.40012 -0.59998,3.36016 l 13.31972,13.32063 c 0.83998,-0.36002 2.15995,-0.60003 3.23993,-0.60003 5.03989,0 9.2398,4.08019 9.2398,9.12043 0,5.04024 -4.19991,9.24044 -9.2398,9.24044 -5.0399,0 -9.11981,-4.2002 -9.11981,-9.24044 0,-1.20006 0.24,-2.40011 0.59999,-3.24015 l -12.47974,-12.48059 v 32.64154 c 2.99994,1.44007 5.03989,4.68022 5.03989,8.04038 0,5.04023 -4.07991,9.12043 -9.1198,9.12043 -5.0399,0 -9.23981,-4.0802 -9.23981,-9.12043 0,-3.96019 2.39995,-7.20034 5.99988,-8.64041 v -33.24157 c -3.59993,-1.08005 -5.99988,-4.68022 -5.99988,-8.5204 0,-1.20005 0.36,-2.40011 0.59999,-3.24015 l -13.55971,-13.68064 -35.87924,36.48171 c -2.99994,2.88014 -2.99994,7.68037 0,10.32049 l 52.43889,52.44247 c 2.99993,3.00014 7.67983,3.00014 10.31978,0 l 52.43889,-52.44247 c 3.35993,-2.88014 3.35993,-7.68036 0.35999,-10.32049 z"
     stroke="#000000"
     stroke-opacity="0"
     fill="#0078d7"
     class="lucid-layer"
     lucid:layer-id="VF1aS5Y-qK_q"
     display="block"
     id="path1518"
     style="stroke-width:1.00001;opacity:0.2" />
  <path
     d="m 20.011732,166.00303 c 0,-3.30015 2.699943,-6.00028 5.999873,-6.00028 H 174.00848 c 3.29993,0 5.99987,2.70013 5.99987,6.00028 v 108.00509 c 0,3.30015 -2.69994,6.00028 -5.99987,6.00028 H 26.011605 c -3.29993,0 -5.999873,-2.70013 -5.999873,-6.00028 z"
     stroke="#5e5e5e"
     stroke-width="3.00004"
     fill="#ffffff"
     id="path1440" />
  <use
     xlink:href="#a"
     transform="matrix(0.99997886,0,0,1.0000471,58.035618,210.78292)"
     id="use1442"
     x="0"
     y="0"
     width="100%"
     height="100%" />
  <use
     xlink:href="#b"
     transform="matrix(0.99997886,0,0,1.0000471,44.548253,237.45084)"
     id="use1444"
     x="0"
     y="0"
     width="100%"
     height="100%" />
  <use
     xlink:href="#c"
     transform="matrix(0.99997886,0,0,1.0000471,111.09006,237.45084)"
     id="use1446"
     x="0"
     y="0"
     width="100%"
     height="100%" />
  <path
     d="m 260.00666,166.00303 c 0,-3.30015 2.69994,-6.00028 5.99987,-6.00028 h 131.99721 c 3.29993,0 5.99987,2.70013 5.99987,6.00028 v 96.00452 c -24.04949,-17.0308 -39.01917,-17.0308 -48.09898,-17.0308 -14.39969,0 -33.54929,17.0308 -47.94899,17.0308 -8.92981,0 -24.04949,0 -47.94898,-17.0308 z"
     stroke="#5e5e5e"
     stroke-width="3.00004"
     fill="#ffffff"
     id="path1448" />
  <path
     d="m 268.00649,175.00346 c 0,-3.30016 2.69994,-6.00029 5.99987,-6.00029 h 131.99721 c 3.29993,0 5.99988,2.70013 5.99988,6.00029 v 96.00452 c -24.0495,-17.0308 -39.01918,-17.0308 -48.09899,-17.0308 -14.39969,0 -33.54929,17.0308 -47.94898,17.0308 -8.92982,0 -24.0495,0 -47.94899,-17.0308 z"
     stroke="#5e5e5e"
     stroke-width="3.00004"
     fill="#ffffff"
     id="path1450" />
  <path
     d="m 276.00632,184.00388 c 0,-3.30016 2.69994,-6.00028 5.99987,-6.00028 H 414.0034 c 3.29993,0 5.99988,2.70012 5.99988,6.00028 v 96.00452 c -24.0495,-17.0308 -39.01918,-17.0308 -48.09899,-17.0308 -14.39969,0 -33.54929,17.0308 -47.94898,17.0308 -8.92981,0 -24.0495,0 -47.94899,-17.0308 z"
     stroke="#5e5e5e"
     stroke-width="3.00004"
     fill="#ffffff"
     id="path1452" />
  <use
     xlink:href="#d"
     transform="matrix(0.99997886,0,0,1.0000471,281.40127,211.61629)"
     id="use1454"
     x="0"
     y="0"
     width="100%"
     height="100%" />
  <use
     xlink:href="#e"
     transform="matrix(0.99997886,0,0,1.0000471,352.94296,211.61629)"
     id="use1456"
     x="0"
     y="0"
     width="100%"
     height="100%" />
  <use
     xlink:href="#f"
     transform="matrix(0.99997886,0,0,1.0000471,310.413,238.28422)"
     id="use1458"
     x="0"
     y="0"
     width="100%"
     height="100%" />
  <use
     xlink:href="#g"
     transform="matrix(0.99997886,0,0,1.0000471,585.1541,225.78363)"
     id="use1462"
     x="0"
     y="0"
     width="100%"
     height="100%" />
  <use
     xlink:href="#c"
     transform="matrix(0.99997886,0,0,1.0000471,650.46136,225.78363)"
     id="use1464"
     x="0"
     y="0"
     width="100%"
     height="100%" />
  <path
     d="m 157.62413,213.42304 -52.43889,-52.80248 c -2.99994,-2.88014 -7.679838,-2.88014 -10.43978,0 l -11.519756,11.28053 13.679711,13.68064 c 0.839982,-0.36001 2.039957,-0.60003 3.239925,-0.60003 5.0399,0 9.11981,4.0802 9.11981,9.12043 0,1.20006 -0.23999,2.40012 -0.59999,3.36016 l 13.31972,13.32063 c 0.83998,-0.36002 2.15996,-0.60003 3.23993,-0.60003 5.0399,0 9.23981,4.08019 9.23981,9.12043 0,5.04024 -4.19991,9.24044 -9.23981,9.24044 -5.03989,0 -9.1198,-4.2002 -9.1198,-9.24044 0,-1.20006 0.23999,-2.40011 0.59998,-3.24015 l -12.47973,-12.48059 v 32.64154 c 2.99993,1.44007 5.03989,4.68022 5.03989,8.04038 0,5.04023 -4.07991,9.12043 -9.11981,9.12043 -5.039887,0 -9.239798,-4.0802 -9.239798,-9.12043 0,-3.96019 2.399949,-7.20034 5.999873,-8.64041 v -33.24157 c -3.599924,-1.08005 -5.999873,-4.68022 -5.999873,-8.5204 0,-1.20005 0.359992,-2.40011 0.599987,-3.24015 L 77.945815,176.94133 42.066574,213.42304 c -2.999937,2.88014 -2.999937,7.68037 0,10.32049 L 94.505465,276.186 c 2.999937,3.00014 7.679835,3.00014 10.319775,0 l 52.4389,-52.44247 c 3.35992,-2.88014 3.35992,-7.68036 0.35999,-10.32049 z"
     stroke="#000000"
     stroke-opacity="0"
     fill="#0078d7"
     id="path1466"
     style="stroke-width:1.00001;opacity:0.2" />
  <path
     d="m 1401,272 c 1.65,0 3.07,-0.6 4.25,-1.76 1.17,-1.17 1.75,-2.58 1.75,-4.24 v -30 c 0,-1.66 -0.58,-3.07 -1.75,-4.24 -1.18,-1.17 -2.6,-1.76 -4.25,-1.76 h -48 c -1.65,0 -3.07,0.6 -4.25,1.76 -1.17,1.17 -1.75,2.58 -1.75,4.24 v 30 c 0,1.66 0.58,3.07 1.75,4.24 1.18,1.17 2.6,1.76 4.25,1.76 h -12 v 6 h 72 v -6 z m -48,-36 h 48 v 30 h -48 z"
     fill="#757575"
     id="path1470"
     transform="matrix(0.99997886,0,0,1.0000471,-179.98404,-60.007612)"
     style="filter:url(#h)" />
  <use
     xlink:href="#i"
     transform="matrix(0.99997886,0,0,1.0000471,1159.1277,259.06494)"
     id="use1472"
     x="0"
     y="0"
     width="100%"
     height="100%"
     style="filter:url(#h)" />
  <use
     xlink:href="#j"
     transform="matrix(0.99997886,0,0,1.0000471,1197.5663,259.06494)"
     id="use1474"
     x="0"
     y="0"
     width="100%"
     height="100%"
     style="filter:url(#h)" />
  <path
     d="m 182.5083,220.00558 h 57.49878"
     stroke="#5e5e5e"
     stroke-width="2.00003"
     fill="none"
     id="path1478" />
  <path
     d="m 182.5383,221.00562 h -1.02998 v -2.00009 h 1.02998 z"
     fill="#5e5e5e"
     id="path1480"
     style="stroke-width:1.00001" />
  <path
     d="m 255.26676,220.00558 -14.2597,4.64021 v -9.28043 z"
     stroke="#5e5e5e"
     stroke-width="2.00003"
     fill="#5e5e5e"
     id="path1482" />
  <path
     d="M 422.50322,220.30559 H 540.00074"
     stroke="#5e5e5e"
     stroke-width="2.00003"
     fill="none"
     id="path1484" />
  <path
     d="m 422.53322,221.30564 h -1.02998 v -2.0001 h 1.02998 z"
     fill="#5e5e5e"
     id="path1486"
     style="stroke-width:1.00001" />
  <path
     d="m 555.26042,220.30559 -14.2597,4.62022 v -9.27044 z"
     stroke="#5e5e5e"
     stroke-width="2.00003"
     fill="#5e5e5e"
     id="path1488" />
  <path
     d="m 948.6621,165.283 c 3.56992,0 6.34987,2.87013 6.34987,6.4203 l 24.96947,96.00452 v 5.86028 c 0,3.56017 -2.87994,6.4303 -6.35987,6.4303 h -74.29843 c -3.46992,0 -6.33986,-2.88013 -6.33986,-6.4403 v -5.27025 l 27.99941,-96.60455 c 0,-3.55017 2.79994,-6.4203 6.35986,-6.4203 z"
     fill="#4f4f4f"
     id="path1490"
     style="stroke-width:1.00001" />
  <path
     d="m 973.63157,160.00275 c 3.47993,0 6.34987,2.87014 6.34987,6.4203 v 101.8048 c 0,3.55016 -2.87994,6.4203 -6.35987,6.4203 h -74.29843 c -3.46992,0 -6.33986,-2.87014 -6.33986,-6.4203 v -101.8048 c 0,-3.55016 2.86994,-6.4203 6.34986,-6.4203 z"
     fill="#7d7c7c"
     id="path1492"
     style="stroke-width:1.00001" />
  <path
     d="m 966.39173,208.50503 h -59.89874 v -7.08033 h 59.89874 z m 0,-11.97056 h -59.89874 v -7.07033 h 59.89874 z m 0,-12.53059 h -59.89874 v -7.07033 h 59.89874 z"
     fill="#ffffff"
     id="path1494"
     style="stroke-width:1.00001" />
  <path
     d="M 722.49688,220.00558 H 874.49367"
     stroke="#5e5e5e"
     stroke-width="2.00003"
     fill="none"
     id="path1496" />
  <path
     d="m 722.52688,221.00562 h -1.02998 v -2.00009 h 1.02998 z"
     fill="#5e5e5e"
     id="path1498"
     style="stroke-width:1.00001" />
  <path
     d="m 889.75335,220.00558 -14.2597,4.64021 v -9.28043 z"
     stroke="#5e5e5e"
     stroke-width="2.00003"
     fill="#5e5e5e"
     id="path1500" />
  <path
     d="M 980.99142,220.00558 H 1134.4882"
     stroke="#5e5e5e"
     stroke-width="2.00003"
     fill="none"
     id="path1502" />
  <path
     d="m 981.01142,221.00562 h -1.01998 v -2.00009 h 1.01998 z"
     fill="#5e5e5e"
     id="path1504"
     style="stroke-width:1.00001" />
  <path
     d="m 1149.7478,220.00558 -14.2596,4.63021 v -9.27043 z"
     stroke="#5e5e5e"
     stroke-width="2.00003"
     fill="#5e5e5e"
     id="path1506" />
  <path
     d="m 816.49489,286.00868 c 0,-3.30015 2.69995,-6.00028 5.99988,-6.00028 h 227.99513 c 3.3,0 5.9999,2.70013 5.9999,6.00028 v 51.33242 c 0,3.32016 -2.6999,6.00028 -5.9999,6.00028 H 822.49477 c -3.29993,0 -5.99988,-2.68012 -5.99988,-6.00028 z"
     stroke="#000000"
     stroke-opacity="0"
     stroke-width="3.00004"
     fill="#ffffff"
     fill-opacity="0"
     id="path1508" />
  <g
     id="g1514"
     transform="matrix(0.99997886,0,0,1.0000471,-179.98404,-60.007612)">
    <use
       xlink:href="#k"
       transform="translate(1053.0432,376.27778)"
       id="use1510"
       x="0"
       y="0"
       width="100%"
       height="100%" />
    <use
       xlink:href="#l"
       transform="translate(1118.3519,376.27778)"
       id="use1512"
       x="0"
       y="0"
       width="100%"
       height="100%" />
  </g>
</svg>
